<svg xmlns="http://www.w3.org/2000/svg" width="538" height="434" viewBox="0 0 538 434" fill="none"><g opacity="0.4" clip-path="url(#clip0_17_530)"><path d="M77.9489 326.977C72.497 328.757 66.6299 325.771 64.8464 320.31C63.0614 314.844 66.0352 308.971 71.4871 307.19C76.9436 305.408 82.8107 308.394 84.5958 313.86C86.3793 319.321 83.4055 325.195 77.9489 326.977ZM69.7457 301.858C61.1212 304.675 56.4186 313.961 59.2398 322.6C59.7871 324.276 60.5744 325.797 61.5573 327.153C61.9568 327.705 62.3871 328.227 62.8498 328.723C63.3702 329.287 73.3111 338.459 73.3111 338.459L85.3597 349.668L88.4696 333.508C88.4696 333.508 91.081 320.237 91.1684 319.475C91.2491 318.801 91.293 318.124 91.2895 317.443C91.2782 315.77 91.0159 314.077 90.4685 312.401C87.6474 303.763 78.3702 299.042 69.7457 301.858Z" fill="#FFFFFC"></path><path d="M95.2227 351.986C95.8002 353.754 92.5795 356.391 88.0394 357.874C83.4992 359.357 79.3478 359.128 78.7703 357.359C78.1914 355.587 81.4059 352.947 85.9461 351.464C90.4863 349.981 94.6438 350.213 95.2227 351.986Z" fill="#FFFFFC"></path><path d="M427.495 28.6799C425.231 28.6906 418.631 35.5697 420.564 64.9881C422.292 91.2327 424.13 94.9586 425.372 100.943C426.602 106.927 427.243 108.251 427.996 108.245C428.749 108.243 429.37 106.914 430.531 100.92C431.689 94.9158 433.482 91.1707 434.877 64.9052C436.435 35.4728 429.742 28.6645 427.495 28.6799Z" fill="#FFFFFC"></path><path d="M426.714 105.724L420.039 108.097C419.523 108.281 418.986 107.901 418.986 107.355L418.963 104.086C418.959 103.808 419.1 103.553 419.338 103.409L425.996 99.2825C426.52 98.9532 427.198 99.3281 427.202 99.9485L427.234 104.978C427.237 105.313 427.028 105.611 426.714 105.724Z" fill="#FFFFFC"></path><path d="M429.249 105.716L435.951 108.012C436.466 108.185 436.998 107.802 436.998 107.257L436.975 103.988C436.974 103.718 436.833 103.458 436.595 103.322L429.881 99.2571C429.35 98.9414 428.68 99.3233 428.688 99.9422L428.716 104.973C428.717 105.304 428.931 105.601 429.249 105.716Z" fill="#FFFFFC"></path><path d="M421.555 68.8636L391.031 78.6285C390.302 78.8615 389.561 78.3239 389.554 77.5564L389.529 73.4219C389.527 73.0098 389.741 72.6343 390.102 72.4297L420.574 55.0941C421.325 54.6606 422.262 55.2055 422.264 56.071L422.342 67.7762C422.342 68.2755 422.026 68.7148 421.555 68.8636Z" fill="#FFFFFC"></path><path d="M409.825 68.2563C408.522 68.2591 407.454 67.2063 407.451 65.9027L407.413 60.417C407.409 59.1088 408.457 58.0429 409.759 58.0355C411.065 58.0266 412.128 59.0808 412.137 60.3876L412.171 65.8748C412.18 67.1815 411.13 68.2428 409.825 68.2563Z" fill="#FFFFFC"></path><path d="M433.937 68.7995L464.582 78.2368C465.313 78.4618 466.05 77.9102 466.046 77.1473L466.016 73.0143C466.02 72.6053 465.795 72.2302 465.435 72.0319L434.739 55.0133C433.982 54.5981 433.057 55.1501 433.064 56.0141L433.136 67.7208C433.141 68.2186 433.46 68.6495 433.937 68.7995Z" fill="#FFFFFC"></path><path d="M445.656 68.0604C446.964 68.0561 448.012 66.9902 448.003 65.6835L447.974 60.1948C447.96 58.8896 446.897 57.8354 445.591 57.8442C444.289 57.8516 443.239 58.9129 443.243 60.2211L443.282 65.7069C443.291 67.0136 444.354 68.0678 445.656 68.0604Z" fill="#FFFFFC"></path><mask id="mask0_17_530" style="mask-type:luminance" maskUnits="userSpaceOnUse" x="60" y="109" width="430" height="302"><path d="M60.1035 230.486L430.244 109.605L489.024 289.592L118.884 410.473L60.1035 230.486Z" fill="white"></path></mask><g mask="url(#mask0_17_530)"><path d="M429.583 113.653L426.295 113.539C426.315 112.865 426.333 112.187 426.346 111.51L429.636 111.567C429.624 112.264 429.606 112.957 429.583 113.653ZM428.619 125.071L425.362 124.632C425.605 122.8 425.811 120.934 425.96 119.096L429.247 119.378C429.085 121.271 428.874 123.184 428.619 125.071ZM426.559 136.333L423.355 135.586C423.773 133.778 424.157 131.94 424.488 130.13L427.726 130.729C427.385 132.588 426.993 134.479 426.559 136.333ZM423.436 147.351L420.321 146.299C420.903 144.54 421.459 142.748 421.96 140.974L425.13 141.88C424.614 143.7 424.043 145.542 423.436 147.351ZM419.301 158.016L416.292 156.681C417.039 154.989 417.759 153.261 418.422 151.531L421.495 152.734C420.804 154.504 420.069 156.278 419.301 158.016ZM414.19 168.252L411.314 166.638C412.218 165.023 413.094 163.366 413.92 161.715L416.86 163.196C416.018 164.893 415.116 166.594 414.19 168.252ZM408.143 177.962L405.432 176.09C406.48 174.571 407.507 173.002 408.483 171.435L411.274 173.179C410.273 174.795 409.213 176.4 408.143 177.962ZM401.196 187.054L398.678 184.931C399.863 183.519 401.038 182.061 402.162 180.588L404.772 182.589C403.617 184.108 402.415 185.606 401.196 187.054ZM393.398 195.43L391.103 193.066C392.427 191.783 393.728 190.446 394.987 189.092L397.397 191.337C396.1 192.733 394.756 194.11 393.398 195.43ZM279.721 234.012L278.572 230.917C280.364 230.256 282.185 229.636 283.985 229.063L284.975 232.205C283.224 232.756 281.46 233.363 279.721 234.012ZM295.726 229.438C293.922 229.798 292.103 230.218 290.312 230.681L289.494 227.488C291.341 227.012 293.214 226.584 295.077 226.205L295.726 229.438ZM269.495 238.386L268.063 235.42C269.782 234.583 271.534 233.786 273.259 233.045L274.56 236.075C272.879 236.797 271.176 237.573 269.495 238.386ZM306.705 227.87C304.881 228.028 303.028 228.235 301.197 228.497L300.728 225.236C302.617 224.965 304.533 224.747 306.423 224.589L306.705 227.87ZM259.707 243.693L258.017 240.861C259.641 239.887 261.315 238.928 262.975 238.034L264.541 240.927C262.927 241.805 261.301 242.739 259.707 243.693ZM384.854 203.016L382.772 200.465C384.247 199.254 385.679 198.038 387.024 196.849L389.201 199.318C387.83 200.535 386.37 201.776 384.854 203.016ZM317.827 227.586L317.771 227.584C315.933 227.527 314.075 227.517 312.236 227.567L312.154 224.271C314.054 224.222 315.976 224.226 317.867 224.291L317.827 227.586ZM250.394 249.817L248.474 247.137C250.027 246.024 251.608 244.936 253.177 243.904L254.987 246.656C253.454 247.671 251.905 248.733 250.394 249.817ZM375.844 209.958L373.904 207.295C375.506 206.13 376.976 205.028 378.388 203.94L380.393 206.551C378.955 207.658 377.47 208.775 375.844 209.958ZM241.589 256.667L239.47 254.144C240.928 252.913 242.425 251.706 243.904 250.556L245.925 253.157C244.479 254.282 243.016 255.468 241.589 256.667ZM328.795 228.666C326.98 228.367 325.134 228.129 323.306 227.947L323.622 224.669C325.522 224.854 327.443 225.103 329.323 225.416L328.795 228.666ZM366.599 216.509L364.729 213.792C366.272 212.728 367.812 211.654 369.344 210.573L371.242 213.265C369.698 214.355 368.153 215.43 366.599 216.509ZM357.313 222.915L355.439 220.204C356.98 219.135 358.531 218.063 360.083 216.996L361.954 219.713C360.405 220.774 358.854 221.846 357.313 222.915ZM233.316 264.164L231.02 261.801C232.381 260.475 233.78 259.157 235.172 257.897L237.381 260.34C236.014 261.581 234.644 262.864 233.316 264.164ZM339.565 231.172C337.822 230.641 336.024 230.158 334.225 229.737L334.966 226.529C336.84 226.961 338.707 227.468 340.523 228.021L339.565 231.172ZM348.166 229.438L346.213 226.78C347.642 225.727 349.142 224.641 350.804 223.456L352.716 226.144C351.071 227.318 349.582 228.39 348.166 229.438ZM225.591 272.231L223.139 270.031C224.401 268.62 225.702 267.206 227.007 265.848L229.384 268.134C228.106 269.463 226.834 270.842 225.591 272.231ZM339.364 236.329L337.253 233.797C338.653 232.622 340.146 231.421 341.685 230.22L343.706 232.821C342.195 233.998 340.733 235.184 339.364 236.329ZM349.87 235.14C348.227 234.367 346.52 233.635 344.796 232.975L345.972 229.895C347.769 230.593 349.555 231.349 351.272 232.16L349.87 235.14ZM331.143 243.829L328.809 241.503C330.109 240.197 331.502 238.86 332.944 237.549L335.163 239.989C333.761 241.267 332.408 242.555 331.143 243.829ZM218.437 280.815L215.839 278.79C217.006 277.292 218.21 275.799 219.418 274.349L221.942 276.46C220.76 277.881 219.578 279.347 218.437 280.815ZM323.831 252.133L321.227 250.12C322.367 248.631 323.604 247.147 324.886 245.689L327.358 247.873C326.117 249.272 324.929 250.704 323.831 252.133ZM359.432 240.624C357.93 239.596 356.363 238.604 354.764 237.689L356.395 234.833C358.074 235.793 359.716 236.826 361.292 237.907L359.432 240.624ZM211.884 289.865L209.157 288.024C210.215 286.456 211.312 284.885 212.421 283.351L215.085 285.283C213.996 286.785 212.922 288.334 211.884 289.865ZM155.749 309.401L154.543 306.334C156.318 305.637 158.113 304.97 159.899 304.351L160.981 307.462C159.239 308.072 157.479 308.723 155.749 309.401ZM171.644 304.209C169.852 304.683 168.047 305.195 166.281 305.732L165.318 302.581C167.125 302.027 168.972 301.505 170.809 301.027L171.644 304.209ZM145.535 313.873L144.096 310.903C145.8 310.081 147.54 309.279 149.28 308.522L150.596 311.537C148.899 312.285 147.197 313.065 145.535 313.873ZM182.523 301.869C180.729 302.165 178.894 302.519 177.061 302.914L176.365 299.692C178.245 299.286 180.135 298.924 181.98 298.612L182.523 301.869ZM135.69 319.116L134.03 316.264C135.675 315.309 137.349 314.38 139.015 313.49L140.562 316.404C138.929 317.268 137.29 318.18 135.69 319.116ZM193.546 300.639C191.744 300.738 189.879 300.894 188.02 301.098L187.654 297.824C189.576 297.609 191.501 297.449 193.375 297.352L193.546 300.639ZM317.761 261.336L314.881 259.739C315.127 259.292 315.387 258.84 315.644 258.394C316.347 257.191 317.094 255.984 317.876 254.807L320.616 256.628C319.873 257.752 319.159 258.907 318.491 260.058C318.241 260.481 317.998 260.907 317.761 261.336ZM126.27 325.097L124.403 322.379C125.96 321.31 127.555 320.249 129.159 319.231L130.924 322.013C129.354 323.009 127.791 324.045 126.27 325.097ZM204.59 300.813C202.797 300.66 200.941 300.563 199.077 300.535L199.121 297.238C200.515 297.262 201.909 297.317 203.284 297.408C204.145 295.909 205.076 294.361 206.055 292.803L208.845 294.557C207.821 296.181 206.858 297.789 205.967 299.334L204.776 298.653L204.59 300.813ZM367.901 247.611C366.609 246.341 365.241 245.101 363.821 243.934L365.913 241.386C367.409 242.625 368.859 243.93 370.211 245.277L367.901 247.611ZM117.338 331.78L115.266 329.21C116.741 328.015 118.252 326.839 119.769 325.711L121.738 328.355C120.26 329.46 118.781 330.61 117.338 331.78ZM215.436 302.662C213.693 302.207 211.884 301.82 210.057 301.514L210.601 298.264C212.524 298.584 214.428 298.997 216.26 299.473L215.436 302.662ZM313.322 271.382L310.205 270.326C310.812 268.518 311.522 266.696 312.308 264.921L315.32 266.266C314.573 267.942 313.903 269.664 313.322 271.382ZM108.948 339.121L106.683 336.727C108.057 335.427 109.479 334.132 110.902 332.888L113.073 335.369C111.682 336.587 110.29 337.847 108.948 339.121ZM200.931 309.239L197.92 307.914C198.669 306.212 199.496 304.469 200.384 302.727L203.316 304.231C202.454 305.913 201.655 307.601 200.931 309.239ZM374.88 256.048C373.862 254.521 372.757 253.042 371.607 251.659L374.139 249.549C375.361 251.03 376.531 252.599 377.61 254.219L374.88 256.048ZM101.15 347.105L98.7108 344.895C99.9785 343.487 101.294 342.085 102.619 340.729L104.969 343.04C103.677 344.359 102.397 345.729 101.15 347.105ZM225.692 306.447C224.059 305.645 222.365 304.92 220.662 304.293L221.796 301.197C223.604 301.865 225.399 302.634 227.14 303.487L225.692 306.447ZM310.854 282.049L307.589 281.632C307.823 279.742 308.167 277.815 308.613 275.906L311.816 276.664C311.401 278.451 311.078 280.269 310.854 282.049ZM197.211 319.631L194.038 318.762C194.53 316.96 195.117 315.107 195.778 313.261L198.879 314.378C198.244 316.145 197.68 317.914 197.211 319.631ZM234.948 312.26C233.523 311.141 232.021 310.082 230.475 309.109L232.223 306.317C233.865 307.35 235.472 308.481 236.982 309.67L234.948 312.26ZM379.988 265.728C379.294 264.039 378.523 262.365 377.678 260.76L380.584 259.22C381.482 260.924 382.306 262.699 383.035 264.494L379.988 265.728ZM195.31 330.428L192.031 330.185C192.165 328.332 192.4 326.462 192.723 324.613L192.761 324.417L195.998 324.996L195.963 325.186C195.66 326.926 195.444 328.683 195.31 330.428ZM310.726 292.939L307.457 293.289C307.246 291.38 307.16 289.416 307.181 287.452L310.478 287.497C310.45 289.33 310.533 291.163 310.726 292.939ZM242.679 319.922C241.574 318.52 240.344 317.158 239.042 315.871L241.356 313.531C242.751 314.915 244.068 316.375 245.257 317.877L242.679 319.922ZM386.29 275.645L383.055 276.243C382.728 274.46 382.299 272.663 381.787 270.909L384.945 269.985C385.487 271.846 385.941 273.751 386.29 275.645ZM195.704 341.337L192.447 341.82C192.158 339.922 191.98 337.972 191.916 336.011L195.202 335.901C195.266 337.735 195.434 339.56 195.704 341.337ZM310.212 304.659C309.923 303.913 309.655 303.155 309.409 302.404C309.052 301.308 308.731 300.185 308.462 299.065L311.654 298.293C311.91 299.325 312.204 300.365 312.536 301.383C312.765 302.083 313.015 302.786 313.28 303.474L310.212 304.659ZM248.233 329.206C247.542 327.572 246.717 325.951 245.778 324.388L248.598 322.692C249.615 324.388 250.516 326.147 251.265 327.926L248.233 329.206ZM387.169 287.247L383.881 287.133C383.944 285.329 383.904 283.492 383.762 281.668L387.048 281.416C387.191 283.367 387.236 285.329 387.169 287.247ZM195.64 353.078C195.109 351.86 194.626 350.582 194.203 349.288C194.018 348.721 193.838 348.138 193.67 347.546L196.837 346.649C196.991 347.2 197.155 347.748 197.325 348.268C197.716 349.465 198.165 350.638 198.658 351.756L195.64 353.078ZM315.862 314.922C314.709 313.372 313.636 311.71 312.687 309.976L315.569 308.393C316.442 309.988 317.433 311.524 318.5 312.949L315.862 314.922ZM254.117 339.357L250.84 339.607C250.702 337.858 250.426 336.139 250.01 334.491L249.968 334.332L253.157 333.499L253.206 333.697C253.662 335.515 253.971 337.427 254.117 339.357ZM385.38 298.777L382.216 297.874C382.707 296.149 383.098 294.365 383.374 292.557L386.623 293.066C386.328 295.002 385.906 296.923 385.38 298.777ZM201.962 363.014C201.404 362.396 200.855 361.745 200.35 361.089C199.665 360.192 199.006 359.251 198.402 358.291L201.181 356.533C201.732 357.408 202.331 358.262 202.959 359.076C203.412 359.667 203.899 360.252 204.404 360.815L201.962 363.014ZM324.231 323.18C322.649 322.051 321.134 320.767 319.723 319.363L322.033 317.029C323.321 318.305 324.702 319.475 326.143 320.502L324.231 323.18ZM253.089 351.097L249.899 350.284C250.34 348.545 250.643 346.759 250.801 344.98L254.078 345.276C253.906 347.232 253.573 349.191 253.089 351.097ZM380.704 309.517L377.903 307.777C378.253 307.209 378.589 306.63 378.903 306.049C379.439 305.053 379.939 304.024 380.394 302.983L383.411 304.296C382.921 305.43 382.381 306.539 381.797 307.621C381.459 308.256 381.086 308.893 380.704 309.517ZM334.873 328.291C332.957 327.76 331.086 327.056 329.322 326.211L330.742 323.24C332.332 324.005 334.015 324.632 335.747 325.116L334.873 328.291ZM211.281 370.28C209.539 369.345 207.866 368.266 206.308 367.052L208.323 364.453C209.73 365.548 211.248 366.53 212.821 367.366L211.281 370.28ZM373.14 318.469L370.954 316.003C372.308 314.797 373.579 313.495 374.732 312.14L377.242 314.271C375.992 315.749 374.614 317.162 373.14 318.469ZM346.574 329.525C344.589 329.628 342.61 329.576 340.686 329.379L341.016 326.096C342.773 326.282 344.585 326.322 346.396 326.235L346.574 329.525ZM248.319 361.893L245.589 360.054C246.566 358.598 247.431 357.021 248.157 355.357L251.17 356.687C250.363 358.525 249.408 360.279 248.319 361.893ZM363.451 325.001L361.983 322.051C363.6 321.243 365.177 320.331 366.671 319.318L368.509 322.06C366.9 323.141 365.197 324.136 363.451 325.001ZM357.411 327.478C355.763 328.017 354.078 328.46 352.397 328.79L351.755 325.56C353.513 325.215 355.267 324.734 356.981 324.149L358.055 327.263C357.838 327.334 357.623 327.409 357.411 327.478ZM222.542 373.884C220.604 373.645 218.649 373.214 216.735 372.595L217.749 369.457C219.459 370.014 221.206 370.401 222.936 370.611L222.542 373.884ZM239.838 370.218L238.099 367.422C239.56 366.512 240.948 365.411 242.218 364.151L244.537 366.492C243.09 367.927 241.51 369.177 239.838 370.218ZM234.393 372.785L234.283 372.822C232.441 373.423 230.491 373.82 228.514 373.992L228.219 370.715C229.951 370.557 231.647 370.212 233.258 369.686L233.369 369.65L234.393 372.785Z" fill="#FFFFFC"></path></g></g><defs><clipPath id="clip0_17_530"><rect width="465.023" height="304.125" fill="white" transform="translate(0.726074 144.539) rotate(-18.0861)"></rect></clipPath></defs></svg>